<svg width="28" height="28" viewBox="0 0 28 28" fill="none" xmlns="http://www.w3.org/2000/svg">
		<circle cx="14" cy="14" r="14" fill="#592E51"/>
		<path d="M17.7061 19L16.4756 15.8281H12.4697L11.2461 19H10.0703L13.9805 8.96484H15.0264L18.9092 19H17.7061ZM16.127 14.7959L14.958 11.6445C14.9307 11.5625 14.8851 11.4281 14.8213 11.2412C14.762 11.0544 14.7005 10.8607 14.6367 10.6602C14.5729 10.4596 14.5205 10.2979 14.4795 10.1748C14.4339 10.3617 14.3838 10.5485 14.3291 10.7354C14.279 10.9176 14.2288 11.0885 14.1787 11.248C14.1286 11.403 14.0853 11.5352 14.0488 11.6445L12.8594 14.7959H16.127Z" fill="white"/>
	</svg>
