<svg width="28" height="28" viewBox="0 0 28 28" fill="none" xmlns="http://www.w3.org/2000/svg">
		<circle cx="14" cy="14" r="14" fill="#592E51"/>
		<path d="M11.3418 9.00586H14.1719C15.4206 9.00586 16.3594 9.19271 16.9883 9.56641C17.6172 9.9401 17.9316 10.5758 17.9316 11.4736C17.9316 11.861 17.8564 12.2096 17.7061 12.5195C17.5602 12.8249 17.346 13.0778 17.0635 13.2783C16.7809 13.4788 16.4323 13.6178 16.0176 13.6953V13.7637C16.4551 13.832 16.8424 13.9574 17.1797 14.1396C17.5169 14.3219 17.7812 14.5771 17.9727 14.9053C18.1641 15.2334 18.2598 15.6504 18.2598 16.1562C18.2598 16.7715 18.1162 17.291 17.8291 17.7148C17.5465 18.1387 17.1455 18.46 16.626 18.6787C16.1064 18.8929 15.4912 19 14.7803 19H11.3418V9.00586ZM12.5039 13.292H14.418C15.2884 13.292 15.89 13.1484 16.2227 12.8613C16.5599 12.5742 16.7285 12.1549 16.7285 11.6035C16.7285 11.0339 16.528 10.6237 16.127 10.373C15.7305 10.1224 15.097 9.99707 14.2266 9.99707H12.5039V13.292ZM12.5039 14.2695V18.0088H14.582C15.4707 18.0088 16.0996 17.8356 16.4688 17.4893C16.8379 17.1383 17.0225 16.6667 17.0225 16.0742C17.0225 15.696 16.9382 15.3724 16.7695 15.1035C16.6055 14.8346 16.3366 14.6296 15.9629 14.4883C15.5938 14.3424 15.0993 14.2695 14.4795 14.2695H12.5039Z" fill="white"/>
	</svg>