<svg width="28" height="28" viewBox="0 0 28 28" fill="none" xmlns="http://www.w3.org/2000/svg">
		<circle cx="14" cy="14" r="14" fill="#592E51"/>
		<path d="M15.7305 9.8877C15.179 9.8877 14.6823 9.9834 14.2402 10.1748C13.8027 10.3617 13.429 10.6351 13.1191 10.9951C12.8138 11.3506 12.5791 11.7812 12.415 12.2871C12.251 12.793 12.1689 13.3626 12.1689 13.9961C12.1689 14.8346 12.2988 15.5638 12.5586 16.1836C12.8229 16.7988 13.2148 17.2751 13.7344 17.6123C14.2585 17.9495 14.9124 18.1182 15.6963 18.1182C16.1429 18.1182 16.5622 18.0817 16.9541 18.0088C17.3506 17.9313 17.7357 17.8356 18.1094 17.7217V18.7334C17.7448 18.8701 17.362 18.9704 16.9609 19.0342C16.5599 19.1025 16.0837 19.1367 15.5322 19.1367C14.516 19.1367 13.666 18.9271 12.9824 18.5078C12.3034 18.084 11.793 17.487 11.4512 16.7168C11.1139 15.9466 10.9453 15.0374 10.9453 13.9893C10.9453 13.2327 11.0501 12.5423 11.2598 11.918C11.474 11.2891 11.7839 10.7467 12.1895 10.291C12.5996 9.83529 13.1009 9.48438 13.6934 9.23828C14.2904 8.98763 14.974 8.8623 15.7441 8.8623C16.25 8.8623 16.7376 8.91243 17.207 9.0127C17.6764 9.11296 18.1003 9.25651 18.4785 9.44336L18.0137 10.4277C17.6947 10.2819 17.3438 10.1566 16.9609 10.0518C16.5827 9.94238 16.1725 9.8877 15.7305 9.8877Z" fill="white"/>
	</svg>