<svg width="28" height="28" viewBox="0 0 28 28" fill="none" xmlns="http://www.w3.org/2000/svg">
		<circle cx="14" cy="14" r="14" fill="#592E51"/>
		<path d="M15.0469 13.7637H18.54V18.6104C18.016 18.7881 17.4759 18.9202 16.9199 19.0068C16.3685 19.0934 15.751 19.1367 15.0674 19.1367C14.0283 19.1367 13.151 18.9294 12.4355 18.5146C11.7246 18.0999 11.1846 17.5098 10.8154 16.7441C10.4463 15.974 10.2617 15.0602 10.2617 14.0029C10.2617 12.9684 10.4645 12.0661 10.8701 11.2959C11.2803 10.5257 11.8704 9.92871 12.6406 9.50488C13.4154 9.0765 14.3451 8.8623 15.4297 8.8623C15.9857 8.8623 16.512 8.91471 17.0088 9.01953C17.5101 9.11979 17.9749 9.26335 18.4033 9.4502L17.959 10.4619C17.5898 10.3024 17.182 10.1657 16.7354 10.0518C16.2933 9.93783 15.8353 9.88086 15.3613 9.88086C14.5456 9.88086 13.846 10.0495 13.2627 10.3867C12.6839 10.724 12.2396 11.2002 11.9297 11.8154C11.6243 12.4307 11.4717 13.1598 11.4717 14.0029C11.4717 14.8369 11.6061 15.5638 11.875 16.1836C12.1439 16.7988 12.5632 17.2773 13.1328 17.6191C13.7025 17.9609 14.4362 18.1318 15.334 18.1318C15.7852 18.1318 16.1725 18.1068 16.4961 18.0566C16.8197 18.002 17.1136 17.9382 17.3779 17.8652V14.8027H15.0469V13.7637Z" fill="white"/>
	</svg>