<svg width="28" height="28" viewBox="0 0 28 28" fill="none" xmlns="http://www.w3.org/2000/svg">
		<circle cx="14" cy="14" r="14" fill="#592E51"/>
		<path d="M13.9668 19L10.6104 10.1543H10.5557C10.5739 10.3411 10.5898 10.569 10.6035 10.8379C10.6172 11.1068 10.6286 11.4007 10.6377 11.7197C10.6468 12.0342 10.6514 12.3555 10.6514 12.6836V19H9.57129V9.00586H11.2939L14.459 17.3184H14.5068L17.7197 9.00586H19.4287V19H18.2803V12.6016C18.2803 12.3053 18.2848 12.0091 18.2939 11.7129C18.3031 11.4121 18.3145 11.1296 18.3281 10.8652C18.3418 10.5964 18.3555 10.3639 18.3691 10.168H18.3145L14.917 19H13.9668Z" fill="white"/>
	</svg>