<svg width="28" height="28" viewBox="0 0 28 28" fill="none" xmlns="http://www.w3.org/2000/svg">
		<circle cx="14" cy="14" r="14" fill="#592E51"/>
		<path d="M19.0869 13.9893C19.0869 14.8096 18.9753 15.5524 18.752 16.2178C18.5286 16.8831 18.196 17.446 17.7539 17.9062C17.3164 18.3665 16.7695 18.7015 16.1133 18.9111L18.4648 21.3789H16.8037L14.8691 19.123C14.8099 19.123 14.7484 19.1253 14.6846 19.1299C14.6253 19.1344 14.5661 19.1367 14.5068 19.1367C13.7321 19.1367 13.0553 19.0137 12.4766 18.7676C11.9023 18.5215 11.4238 18.1706 11.041 17.7148C10.6628 17.2591 10.3779 16.7145 10.1865 16.0811C9.99967 15.4476 9.90625 14.7458 9.90625 13.9756C9.90625 12.9548 10.0749 12.0592 10.4121 11.2891C10.7493 10.5189 11.2598 9.9196 11.9434 9.49121C12.6315 9.06283 13.4928 8.84863 14.5273 8.84863C15.5163 8.84863 16.348 9.06055 17.0225 9.48438C17.7015 9.9082 18.2142 10.5052 18.5605 11.2754C18.9115 12.041 19.0869 12.9456 19.0869 13.9893ZM11.1299 13.9893C11.1299 14.8369 11.2507 15.5706 11.4922 16.1904C11.7337 16.8102 12.1029 17.2887 12.5996 17.626C13.1009 17.9632 13.7367 18.1318 14.5068 18.1318C15.2816 18.1318 15.915 17.9632 16.4072 17.626C16.904 17.2887 17.2708 16.8102 17.5078 16.1904C17.7448 15.5706 17.8633 14.8369 17.8633 13.9893C17.8633 12.6995 17.5921 11.6924 17.0498 10.9678C16.512 10.2386 15.6712 9.87402 14.5273 9.87402C13.7526 9.87402 13.1146 10.0404 12.6133 10.373C12.112 10.7057 11.7383 11.1797 11.4922 11.7949C11.2507 12.4056 11.1299 13.137 11.1299 13.9893Z" fill="white"/>
	</svg>