<svg width="28" height="28" viewBox="0 0 28 28" fill="none" xmlns="http://www.w3.org/2000/svg">
		<circle cx="14" cy="14" r="14" fill="#592E51"/>
		<path d="M17.665 16.3408C17.665 16.9333 17.5169 17.4391 17.2207 17.8584C16.929 18.2731 16.5189 18.5898 15.9902 18.8086C15.4616 19.0273 14.8395 19.1367 14.124 19.1367C13.7458 19.1367 13.388 19.1185 13.0508 19.082C12.7135 19.0456 12.4036 18.9932 12.1211 18.9248C11.8385 18.8564 11.5902 18.7721 11.376 18.6719V17.5576C11.7178 17.6989 12.1348 17.8311 12.627 17.9541C13.1191 18.0726 13.6341 18.1318 14.1719 18.1318C14.6732 18.1318 15.097 18.0658 15.4434 17.9336C15.7897 17.7969 16.0518 17.6032 16.2295 17.3525C16.4118 17.0973 16.5029 16.792 16.5029 16.4365C16.5029 16.0947 16.4277 15.8099 16.2773 15.582C16.127 15.3496 15.8763 15.14 15.5254 14.9531C15.179 14.7617 14.7051 14.5589 14.1035 14.3447C13.6797 14.1943 13.306 14.0303 12.9824 13.8525C12.6589 13.6702 12.3877 13.4652 12.1689 13.2373C11.9502 13.0094 11.7839 12.7451 11.6699 12.4443C11.5605 12.1436 11.5059 11.7995 11.5059 11.4121C11.5059 10.8789 11.6403 10.4232 11.9092 10.0449C12.1826 9.66211 12.5586 9.37044 13.0371 9.16992C13.5202 8.96484 14.0739 8.8623 14.6982 8.8623C15.2314 8.8623 15.7236 8.91243 16.1748 9.0127C16.6305 9.11296 17.0475 9.2474 17.4258 9.41602L17.0635 10.4141C16.7035 10.2637 16.3206 10.1383 15.915 10.0381C15.514 9.93783 15.0993 9.8877 14.6709 9.8877C14.2425 9.8877 13.8802 9.9515 13.584 10.0791C13.2923 10.2021 13.069 10.3776 12.9141 10.6055C12.7591 10.8333 12.6816 11.1045 12.6816 11.4189C12.6816 11.7699 12.7546 12.0615 12.9004 12.2939C13.0508 12.5264 13.2878 12.7337 13.6113 12.916C13.9395 13.0938 14.3724 13.2806 14.9102 13.4766C15.498 13.6908 15.9971 13.9186 16.4072 14.1602C16.8174 14.3971 17.1296 14.6888 17.3438 15.0352C17.5579 15.377 17.665 15.8122 17.665 16.3408Z" fill="white"/>
	</svg>