<svg width="28" height="28" viewBox="0 0 28 28" fill="none" xmlns="http://www.w3.org/2000/svg">
		<circle cx="14" cy="14" r="14" fill="#592E51"/>
		<path d="M18.3213 9.00586V15.4727C18.3213 16.179 18.1777 16.8079 17.8906 17.3594C17.6081 17.9108 17.1797 18.346 16.6055 18.665C16.0312 18.9795 15.3112 19.1367 14.4453 19.1367C13.2103 19.1367 12.2692 18.8018 11.6221 18.1318C10.9795 17.4619 10.6582 16.5664 10.6582 15.4453V9.00586H11.8271V15.4795C11.8271 16.3271 12.0505 16.9811 12.4971 17.4414C12.9482 17.9017 13.6204 18.1318 14.5137 18.1318C15.1243 18.1318 15.6234 18.0225 16.0107 17.8037C16.4027 17.5804 16.6921 17.2705 16.8789 16.874C17.0703 16.473 17.166 16.0104 17.166 15.4863V9.00586H18.3213Z" fill="white"/>
	</svg>