<svg width="28" height="28" viewBox="0 0 28 28" fill="none" xmlns="http://www.w3.org/2000/svg">
<path d="M27.5 13.5172C27.5 20.6901 21.4725 26.5345 14 26.5345C6.52747 26.5345 0.5 20.6901 0.5 13.5172C0.5 6.34441 6.52747 0.5 14 0.5C21.4725 0.5 27.5 6.34441 27.5 13.5172Z" stroke="#807D7D"/>
<path d="M10.8418 9.00586H13.6719C14.9206 9.00586 15.8594 9.19271 16.4883 9.56641C17.1172 9.9401 17.4316 10.5758 17.4316 11.4736C17.4316 11.861 17.3564 12.2096 17.2061 12.5195C17.0602 12.8249 16.846 13.0778 16.5635 13.2783C16.2809 13.4788 15.9323 13.6178 15.5176 13.6953V13.7637C15.9551 13.832 16.3424 13.9574 16.6797 14.1396C17.0169 14.3219 17.2812 14.5771 17.4727 14.9053C17.6641 15.2334 17.7598 15.6504 17.7598 16.1562C17.7598 16.7715 17.6162 17.291 17.3291 17.7148C17.0465 18.1387 16.6455 18.46 16.126 18.6787C15.6064 18.8929 14.9912 19 14.2803 19H10.8418V9.00586ZM12.0039 13.292H13.918C14.7884 13.292 15.39 13.1484 15.7227 12.8613C16.0599 12.5742 16.2285 12.1549 16.2285 11.6035C16.2285 11.0339 16.028 10.6237 15.627 10.373C15.2305 10.1224 14.597 9.99707 13.7266 9.99707H12.0039V13.292ZM12.0039 14.2695V18.0088H14.082C14.9707 18.0088 15.5996 17.8356 15.9688 17.4893C16.3379 17.1383 16.5225 16.6667 16.5225 16.0742C16.5225 15.696 16.4382 15.3724 16.2695 15.1035C16.1055 14.8346 15.8366 14.6296 15.4629 14.4883C15.0938 14.3424 14.5993 14.2695 13.9795 14.2695H12.0039Z" fill="#807D7D"/>
</svg>
