<svg width="28" height="28" viewBox="0 0 28 28" fill="none" xmlns="http://www.w3.org/2000/svg">
<circle cx="14" cy="14" r="13.5" stroke="#807D7D"/>
<path d="M14.7305 9.8877C14.179 9.8877 13.6823 9.9834 13.2402 10.1748C12.8027 10.3617 12.429 10.6351 12.1191 10.9951C11.8138 11.3506 11.5791 11.7812 11.415 12.2871C11.251 12.793 11.1689 13.3626 11.1689 13.9961C11.1689 14.8346 11.2988 15.5638 11.5586 16.1836C11.8229 16.7988 12.2148 17.2751 12.7344 17.6123C13.2585 17.9495 13.9124 18.1182 14.6963 18.1182C15.1429 18.1182 15.5622 18.0817 15.9541 18.0088C16.3506 17.9313 16.7357 17.8356 17.1094 17.7217V18.7334C16.7448 18.8701 16.362 18.9704 15.9609 19.0342C15.5599 19.1025 15.0837 19.1367 14.5322 19.1367C13.516 19.1367 12.666 18.9271 11.9824 18.5078C11.3034 18.084 10.793 17.487 10.4512 16.7168C10.1139 15.9466 9.94531 15.0374 9.94531 13.9893C9.94531 13.2327 10.0501 12.5423 10.2598 11.918C10.474 11.2891 10.7839 10.7467 11.1895 10.291C11.5996 9.83529 12.1009 9.48438 12.6934 9.23828C13.2904 8.98763 13.974 8.8623 14.7441 8.8623C15.25 8.8623 15.7376 8.91243 16.207 9.0127C16.6764 9.11296 17.1003 9.25651 17.4785 9.44336L17.0137 10.4277C16.6947 10.2819 16.3438 10.1566 15.9609 10.0518C15.5827 9.94238 15.1725 9.8877 14.7305 9.8877Z" fill="#807D7D"/>
</svg>
