<svg width="28" height="28" viewBox="0 0 28 28" fill="none" xmlns="http://www.w3.org/2000/svg">
<circle cx="14" cy="14" r="13.5" stroke="#807D7D"/>
<path d="M18.7246 13.9072C18.7246 15.0329 18.5195 15.974 18.1094 16.7305C17.6992 17.4824 17.1045 18.0498 16.3252 18.4326C15.5505 18.8109 14.6094 19 13.502 19H10.7881V9.00586H13.8027C14.819 9.00586 15.694 9.19271 16.4277 9.56641C17.1615 9.93555 17.7266 10.4847 18.123 11.2139C18.5241 11.9385 18.7246 12.8363 18.7246 13.9072ZM17.501 13.9482C17.501 13.0505 17.3506 12.3099 17.0498 11.7266C16.7536 11.1432 16.3161 10.7103 15.7373 10.4277C15.1631 10.1406 14.459 9.99707 13.625 9.99707H11.9502V18.002H13.3652C14.7415 18.002 15.7738 17.6624 16.4619 16.9834C17.1546 16.3044 17.501 15.2926 17.501 13.9482Z" fill="#807D7D"/>
</svg>
