<svg width="28" height="28" viewBox="0 0 28 28" fill="none" xmlns="http://www.w3.org/2000/svg">
<circle cx="14" cy="14" r="13.5" stroke="#807D7D"/>
<path d="M14.0469 13.7637H17.54V18.6104C17.016 18.7881 16.4759 18.9202 15.9199 19.0068C15.3685 19.0934 14.751 19.1367 14.0674 19.1367C13.0283 19.1367 12.151 18.9294 11.4355 18.5146C10.7246 18.0999 10.1846 17.5098 9.81543 16.7441C9.44629 15.974 9.26172 15.0602 9.26172 14.0029C9.26172 12.9684 9.46452 12.0661 9.87012 11.2959C10.2803 10.5257 10.8704 9.92871 11.6406 9.50488C12.4154 9.0765 13.3451 8.8623 14.4297 8.8623C14.9857 8.8623 15.512 8.91471 16.0088 9.01953C16.5101 9.11979 16.9749 9.26335 17.4033 9.4502L16.959 10.4619C16.5898 10.3024 16.182 10.1657 15.7354 10.0518C15.2933 9.93783 14.8353 9.88086 14.3613 9.88086C13.5456 9.88086 12.846 10.0495 12.2627 10.3867C11.6839 10.724 11.2396 11.2002 10.9297 11.8154C10.6243 12.4307 10.4717 13.1598 10.4717 14.0029C10.4717 14.8369 10.6061 15.5638 10.875 16.1836C11.1439 16.7988 11.5632 17.2773 12.1328 17.6191C12.7025 17.9609 13.4362 18.1318 14.334 18.1318C14.7852 18.1318 15.1725 18.1068 15.4961 18.0566C15.8197 18.002 16.1136 17.9382 16.3779 17.8652V14.8027H14.0469V13.7637Z" fill="#807D7D"/>
</svg>
