<svg width="28" height="28" viewBox="0 0 28 28" fill="none" xmlns="http://www.w3.org/2000/svg">
<circle cx="14" cy="14" r="13.5" stroke="#807D7D"/>
<path d="M12.5449 21.6318C12.3171 21.6318 12.1165 21.6159 11.9434 21.584C11.7702 21.5521 11.6221 21.5088 11.499 21.4541V20.4629C11.6449 20.5085 11.8021 20.5426 11.9707 20.5654C12.1393 20.5928 12.3216 20.6064 12.5176 20.6064C12.7728 20.6064 13.0075 20.5563 13.2217 20.4561C13.4359 20.3558 13.6068 20.1849 13.7344 19.9434C13.862 19.7018 13.9258 19.3691 13.9258 18.9453V9.00586H15.0947V18.8564C15.0947 19.4808 14.9899 19.998 14.7803 20.4082C14.5752 20.8184 14.2812 21.1237 13.8984 21.3242C13.5202 21.5293 13.069 21.6318 12.5449 21.6318Z" fill="#807D7D"/>
</svg>
