<svg width="28" height="28" viewBox="0 0 28 28" fill="none" xmlns="http://www.w3.org/2000/svg">
<circle cx="14" cy="14" r="13.5" stroke="#807D7D"/>
<path d="M19.0869 13.9893C19.0869 14.7594 18.9889 15.4613 18.793 16.0947C18.597 16.7236 18.3053 17.266 17.918 17.7217C17.5352 18.1729 17.0589 18.5215 16.4893 18.7676C15.9196 19.0137 15.2588 19.1367 14.5068 19.1367C13.7321 19.1367 13.0553 19.0137 12.4766 18.7676C11.9023 18.5215 11.4238 18.1706 11.041 17.7148C10.6628 17.2591 10.3779 16.7145 10.1865 16.0811C9.99967 15.4476 9.90625 14.7458 9.90625 13.9756C9.90625 12.9548 10.0749 12.0592 10.4121 11.2891C10.7493 10.5189 11.2598 9.9196 11.9434 9.49121C12.6315 9.06283 13.4928 8.84863 14.5273 8.84863C15.5163 8.84863 16.348 9.06055 17.0225 9.48438C17.7015 9.9082 18.2142 10.5052 18.5605 11.2754C18.9115 12.041 19.0869 12.9456 19.0869 13.9893ZM11.1299 13.9893C11.1299 14.8369 11.2507 15.5706 11.4922 16.1904C11.7337 16.8102 12.1029 17.2887 12.5996 17.626C13.1009 17.9632 13.7367 18.1318 14.5068 18.1318C15.2816 18.1318 15.915 17.9632 16.4072 17.626C16.904 17.2887 17.2708 16.8102 17.5078 16.1904C17.7448 15.5706 17.8633 14.8369 17.8633 13.9893C17.8633 12.6995 17.5921 11.6924 17.0498 10.9678C16.512 10.2386 15.6712 9.87402 14.5273 9.87402C13.7526 9.87402 13.1146 10.0404 12.6133 10.373C12.112 10.7057 11.7383 11.1797 11.4922 11.7949C11.2507 12.4056 11.1299 13.137 11.1299 13.9893Z" fill="#807D7D"/>
</svg>
