<svg width="28" height="28" viewBox="0 0 28 28" fill="none" xmlns="http://www.w3.org/2000/svg">
<circle cx="14" cy="14" r="13.5" stroke="#807D7D"/>
<path d="M14.2676 9.00586C15.5573 9.00586 16.4984 9.25879 17.0908 9.76465C17.6878 10.266 17.9863 10.986 17.9863 11.9248C17.9863 12.3486 17.9157 12.752 17.7744 13.1348C17.6377 13.513 17.4144 13.848 17.1045 14.1396C16.7946 14.4268 16.3867 14.6546 15.8809 14.8232C15.3796 14.9873 14.7643 15.0693 14.0352 15.0693H12.8184V19H11.6562V9.00586H14.2676ZM14.1582 9.99707H12.8184V14.0713H13.9053C14.5433 14.0713 15.0742 14.0029 15.498 13.8662C15.9264 13.7295 16.2477 13.5085 16.4619 13.2031C16.6761 12.8932 16.7832 12.4831 16.7832 11.9727C16.7832 11.3073 16.5713 10.8128 16.1475 10.4893C15.7236 10.1611 15.0605 9.99707 14.1582 9.99707Z" fill="#807D7D"/>
</svg>
