<svg width="28" height="28" viewBox="0 0 28 28" fill="none" xmlns="http://www.w3.org/2000/svg">
<circle cx="14" cy="14" r="13.5" stroke="#807D7D"/>
<path d="M14.2471 9.00586C15.0674 9.00586 15.7441 9.1084 16.2773 9.31348C16.8151 9.514 17.2161 9.82161 17.4805 10.2363C17.7448 10.651 17.877 11.1797 17.877 11.8223C17.877 12.3509 17.7812 12.793 17.5898 13.1484C17.3984 13.4993 17.1478 13.7842 16.8379 14.0029C16.528 14.2217 16.1976 14.3903 15.8467 14.5088L18.5879 19H17.2344L14.7871 14.8301H12.709V19H11.5469V9.00586H14.2471ZM14.1787 10.0107H12.709V13.8457H14.2949C15.1107 13.8457 15.71 13.6794 16.0928 13.3467C16.4801 13.014 16.6738 12.5241 16.6738 11.877C16.6738 11.1979 16.4688 10.7171 16.0586 10.4346C15.653 10.152 15.0264 10.0107 14.1787 10.0107Z" fill="#807D7D"/>
</svg>
