<svg width="28" height="28" viewBox="0 0 28 28" fill="none" xmlns="http://www.w3.org/2000/svg">
<circle cx="14" cy="14" r="13.5" stroke="#807D7D"/>
<path d="M20.7549 9.00586L18.082 19H16.9131L14.9307 12.2734C14.8714 12.082 14.8145 11.8906 14.7598 11.6992C14.7096 11.5033 14.6618 11.3187 14.6162 11.1455C14.5706 10.9678 14.5319 10.8128 14.5 10.6807C14.4727 10.5439 14.4521 10.4414 14.4385 10.373C14.4294 10.4414 14.4111 10.5417 14.3838 10.6738C14.361 10.806 14.3291 10.9587 14.2881 11.1318C14.2516 11.305 14.2061 11.4896 14.1514 11.6855C14.1012 11.8815 14.0465 12.0798 13.9873 12.2803L12.0596 19H10.8906L8.23828 9.00586H9.44824L11.0547 15.2744C11.1094 15.484 11.1595 15.6914 11.2051 15.8965C11.2552 16.097 11.2985 16.293 11.335 16.4844C11.376 16.6758 11.4124 16.8626 11.4443 17.0449C11.4762 17.2272 11.5059 17.4049 11.5332 17.5781C11.556 17.4004 11.5856 17.2158 11.6221 17.0244C11.6585 16.8285 11.6973 16.6302 11.7383 16.4297C11.7839 16.2292 11.8317 16.0264 11.8818 15.8213C11.9365 15.6162 11.9935 15.4111 12.0527 15.2061L13.8506 9.00586H15.0469L16.9199 15.2539C16.9837 15.4681 17.043 15.68 17.0977 15.8896C17.1523 16.0993 17.2002 16.3044 17.2412 16.5049C17.2868 16.7008 17.3255 16.89 17.3574 17.0723C17.3939 17.25 17.4258 17.4186 17.4531 17.5781C17.485 17.3548 17.5238 17.1201 17.5693 16.874C17.6149 16.6279 17.6673 16.3704 17.7266 16.1016C17.7904 15.8327 17.8587 15.5547 17.9316 15.2676L19.5381 9.00586H20.7549Z" fill="#807D7D"/>
</svg>
